Coordinates
version=1
nRows=27
nColumns=12
inDegrees=yes

Units are S.I. units (second, meters, Newtons, ...)
Angles are in degrees

endheader
time	SC_y	SC_z	SC_x	AC_y	AC_z	AC_x	GH_y	GH_z	GH_yy	EL_x	PS_y
       0.0              -26.14          36.55          32.95          62.15          9.452         -9.788         -158.5          87.92          116.3          57.04          151.0
  0.007094              -26.14          36.55          32.95          62.15          9.448         -9.784         -158.5          87.92          116.3          57.04          151.0
   0.01419              -26.14          36.55          32.95          62.14          9.445          -9.78         -158.4          87.91          116.3          57.04          151.0
   0.02128              -26.14          36.54          32.95          62.14          9.441         -9.776         -158.4          87.91          116.3          57.05          151.0
   0.02838              -26.14          36.54          32.94          62.14          9.437         -9.772         -158.3           87.9          116.3          57.05          150.9
   0.03547              -26.15          36.53          32.94          62.13          9.432         -9.767         -158.3           87.9          116.3          57.05          150.9
   0.04256              -26.15          36.53          32.94          62.13          9.427         -9.762         -158.2          87.89          116.3          57.06          150.9
   0.04966              -26.15          36.52          32.94          62.13          9.422         -9.756         -158.2          87.89          116.3          57.06          150.9
   0.05675              -26.15          36.52          32.93          62.12          9.417         -9.751         -158.1          87.88          116.4          57.07          150.9
   0.06385              -26.15          36.51          32.93          62.12          9.411         -9.745         -158.0          87.87          116.4          57.07          150.9
   0.07094              -26.15          36.51          32.92          62.11          9.405         -9.738         -158.0          87.87          116.4          57.08          150.9
   0.07804              -26.15           36.5          32.92          62.11          9.398         -9.731         -157.9          87.86          116.4          57.08          150.8
   0.08513              -26.15          36.49          32.91           62.1          9.391         -9.723         -157.8          87.85          116.4          57.09          150.8
   0.09222              -26.16          36.49          32.91           62.1          9.383         -9.715         -157.7          87.84          116.4           57.1          150.8
   0.09932              -26.16          36.48           32.9          62.09          9.375         -9.706         -157.6          87.83          116.5           57.1          150.8
    0.1064              -26.16          36.47           32.9          62.09          9.366         -9.696         -157.5          87.82          116.5          57.11          150.8
    0.1135              -26.16          36.46          32.89          62.08          9.356         -9.686         -157.3           87.8          116.5          57.12          150.7
    0.1206              -26.16          36.45          32.88          62.07          9.345         -9.674         -157.2          87.79          116.5          57.13          150.7
    0.1277              -26.17          36.44          32.88          62.06          9.333         -9.662         -157.1          87.78          116.6          57.14          150.7
    0.1348              -26.17          36.42          32.87          62.05           9.32         -9.648         -156.9          87.76          116.6          57.15          150.7
    0.1419              -26.17          36.41          32.86          62.04          9.306         -9.633         -156.7          87.74          116.6          57.16          150.6
     0.149              -26.17          36.39          32.85          62.03           9.29         -9.616         -156.5          87.73          116.7          57.18          150.6
    0.1561              -26.18          36.38          32.84          62.02          9.273         -9.598         -156.3           87.7          116.7          57.19          150.5
    0.1632              -26.18          36.36          32.82           62.0          9.254         -9.577         -156.1          87.68          116.7          57.21          150.5
    0.1703              -26.19          36.34          32.81          61.99          9.232         -9.555         -155.8          87.65          116.8          57.23          150.4
    0.1774              -26.19          36.31          32.79          61.97          9.209          -9.53         -155.5          87.63          116.8          57.25          150.4
    0.1844               -26.2          36.29          32.77          61.95          9.182         -9.501         -155.2          87.59          116.9          57.27          150.3
